<?xml version="1.0" encoding="UTF-8"?>
<svg width="10px" height="6px" viewBox="0 0 10 6" version="1.1" xmlns="http://www.w3.org/2000/svg" xmlns:xlink="http://www.w3.org/1999/xlink">
    <!-- Generator: Sketch 53.2 (72643) - https://sketchapp.com -->
    <title>049-prev</title>
    <desc>Created with Sketch.</desc>
    <g id="Page-1" stroke="none" stroke-width="1" fill="none" fill-rule="evenodd">
        <g id="Text" transform="translate(-1273.000000, -346.000000)" fill="#0E2A47">
            <g id="COLUMN2" transform="translate(1168.000000, 65.000000)">
                <g id="text-styles" transform="translate(15.000000, 22.000000)">
                    <g id="styles" transform="translate(1.000000, 175.000000)">
                        <g id="input" transform="translate(0.000000, 70.000000)">
                            <g id="049-prev" transform="translate(94.000000, 16.916667) rotate(-90.000000) translate(-94.000000, -16.916667) translate(91.083333, 11.916667)">
                                <path d="M1.49303487,4.99998786 L5.53315418,1.03585684 C5.77466289,0.798890533 5.77466289,0.414691037 5.53315418,0.17772473 C5.29162074,-0.0592415767 4.90008128,-0.0592415767 4.65857257,0.17772473 L0.181150082,4.57093395 C0.0603833607,4.68938069 0,4.84469641 0,4.99998786 C0,5.15527931 0.0603833607,5.31057077 0.181125345,5.42906605 L4.65854783,9.82227527 C4.90008128,10.0592416 5.29162074,10.0592416 5.53312945,9.82227527 C5.77463815,9.58530896 5.77463815,9.20110947 5.53312945,8.96414316 L1.49303487,4.99998786 Z" id="XMLID_12_"></path>
                            </g>
                        </g>
                    </g>
                </g>
            </g>
        </g>
    </g>
</svg>